<svg width="20" height="20" viewBox="0 0 20 20" fill="none" xmlns="http://www.w3.org/2000/svg">
<mask id="mask0_577_2947" style="mask-type:alpha" maskUnits="userSpaceOnUse" x="0" y="0" width="20" height="20">
<rect width="20" height="20" fill="#D9D9D9"/>
</mask>
<g mask="url(#mask0_577_2947)">
<path d="M17.8505 7.86286C17.807 7.80986 17.7563 7.76168 17.7056 7.72314C15.4792 5.99828 13.2552 4.27342 11.0288 2.54857C10.7584 2.33898 10.4759 2.12217 10.145 2.03304C9.44235 1.84273 8.90628 2.51966 8.41126 2.91233C7.72547 3.45436 7.03727 3.99398 6.35149 4.53601C4.97751 5.61525 3.60352 6.69689 2.22954 7.78095C2.11846 7.87009 1.99531 7.9809 2.00014 8.12303C2.01221 8.39525 2.4372 8.40489 2.6497 8.23626C2.8622 8.06763 3.03847 7.80022 3.30892 7.78336C3.31134 11.0379 3.31617 14.2925 3.31858 17.5471C3.31858 17.6916 3.33066 17.8603 3.44898 17.9446C3.52625 18 3.63008 18 3.72426 18C5.0427 17.9904 6.35873 17.9783 7.67718 17.9687C7.81482 17.1159 7.67718 16.2462 7.66269 15.3838C7.64579 14.5214 7.77618 13.5987 8.34364 12.9459C8.75898 12.4689 9.38681 12.1895 10.0195 12.1967C10.6521 12.2039 11.2727 12.5026 11.676 12.9892C12.2193 13.6493 12.328 14.5623 12.3086 15.4151C12.2893 16.2679 12.1613 17.1328 12.3231 17.9711C13.6247 17.9783 14.9262 17.988 16.2253 17.9952C16.3581 17.9952 16.5079 17.988 16.59 17.8844C16.6503 17.8073 16.6552 17.7013 16.6552 17.6049C16.6624 14.3407 16.6696 11.0765 16.6769 7.81227C16.9377 7.96886 17.1961 8.12544 17.4569 8.28203C17.5969 8.36634 17.778 8.44825 17.9108 8.35671C18.0726 8.24348 17.9905 8.02908 17.8529 7.86045L17.8505 7.86286Z" stroke="#8F8F8F" stroke-miterlimit="10"/>
<path d="M12.9473 8.7203C12.9473 8.65325 12.9422 8.58843 12.9292 8.52361C12.8721 8.26657 12.6515 8.03859 12.3659 7.94472C12.0804 7.85085 11.7404 7.89108 11.4964 8.04977C11.3381 8.15258 11.2161 8.3001 11.0292 8.35821C10.9254 8.3895 10.8112 8.3895 10.7022 8.3895C10.196 8.3895 9.6899 8.38727 9.18376 8.38503C9.08513 8.38503 8.97871 8.38503 8.89046 8.34257C8.79702 8.3001 8.73732 8.21964 8.66464 8.15258C8.17667 7.69439 7.11768 7.93578 7.06057 8.57949C7.03981 8.79629 7.31754 8.97733 7.30715 9.19414C7.29937 9.34166 7.045 9.5227 7.05279 9.67021C7.07096 9.97642 7.31494 10.2647 7.64718 10.372C7.97941 10.4793 8.38432 10.4011 8.6309 10.1798C8.71136 10.1061 8.77885 10.0189 8.88527 9.97195C8.9813 9.92949 9.09291 9.92949 9.19933 9.92949C9.72623 9.92949 10.2505 9.92949 10.7774 9.92949C10.8942 9.92949 11.0136 9.92949 11.1149 9.97866C11.2135 10.0256 11.2784 10.1105 11.3589 10.1798C11.6002 10.3966 11.9922 10.4771 12.3218 10.381C12.6515 10.2849 12.9032 10.0122 12.937 9.71492C12.9577 9.54728 12.7631 9.33942 12.7605 9.17179C12.7579 9.00863 12.9422 8.88346 12.9422 8.72253L12.9473 8.7203Z" stroke="#8F8F8F" stroke-miterlimit="10"/>
</g>
</svg>
