<svg width="20" height="20" viewBox="0 0 20 20" fill="none" xmlns="http://www.w3.org/2000/svg">
<mask id="mask0_577_2929" style="mask-type:alpha" maskUnits="userSpaceOnUse" x="0" y="0" width="20" height="20">
<circle cx="10" cy="10" r="10" fill="#D9D9D9"/>
</mask>
<g mask="url(#mask0_577_2929)">
<path d="M17.9099 9.10683C17.8017 8.73452 17.5873 8.42209 17.2253 8.319C16.9523 8.24089 16.6623 8.30869 16.3798 8.33724C15.1876 8.45658 13.9545 7.78532 13.4005 6.71478C12.7469 5.45313 13.0381 3.92346 12.8103 2.51907C12.7914 2.40211 12.7639 2.27602 12.6749 2.19791C12.5549 2.09205 12.3728 2.11306 12.2177 2.15112C10.6309 2.54167 9.45249 4.18633 9.56974 5.82505C9.57289 5.86866 9.54574 5.90871 9.50364 5.9202C9.42613 5.94122 9.34822 5.96223 9.27071 5.98364C9.21326 5.9995 9.1566 5.95549 9.157 5.89562C9.16015 4.96663 9.16251 4.03844 9.16566 3.10985C9.16644 2.94689 9.15385 2.75737 9.02165 2.66379C8.91935 2.59163 8.78203 2.60511 8.65927 2.62771C8.48457 2.65943 8.31223 2.70305 8.14305 2.75816C7.97346 2.81367 7.80742 2.88028 7.6465 2.95799C7.48557 3.0357 7.32976 3.12452 7.18064 3.22325C7.1472 3.24505 7.11454 3.26845 7.07795 3.2847C7.05395 3.29541 7.02916 3.30215 7.00555 3.31206C6.93787 3.34101 6.88476 3.40048 6.83203 3.45004C6.71321 3.56225 6.5995 3.68001 6.4909 3.80213C6.38231 3.92425 6.27922 4.05073 6.18125 4.18157C6.08288 4.31242 5.99002 4.44723 5.90228 4.58521C5.81454 4.72358 5.73191 4.86553 5.65401 5.01025C5.5761 5.15537 5.50331 5.30326 5.43564 5.45353C5.36757 5.6042 5.30462 5.75724 5.24638 5.91188C5.18815 6.0673 5.13464 6.22392 5.08546 6.38252C5.03667 6.54072 4.9926 6.7009 4.95286 6.86188C4.91351 7.02246 4.8785 7.18423 4.84781 7.34679C4.83836 7.39794 4.82892 7.44909 4.82026 7.50063C4.54799 9.09573 4.66839 10.7313 4.85922 12.3387C4.96624 13.2391 5.09529 14.1471 5.00283 15.0491C4.91076 15.9511 4.56963 16.8646 3.88382 17.4523C2.8864 18.3075 1.44436 18.2893 0.135314 18.3174C-3.01474 18.3852 -6.15299 18.9827 -9.11025 20.0782C-9.94163 20.3863 -10.7738 20.7424 -11.4466 21.3228C-11.6276 21.4791 -11.8043 21.6658 -11.848 21.9021C-11.9444 22.4243 -11.3774 22.8069 -10.8855 22.9988C-9.16455 23.6713 -7.31252 23.9223 -5.47545 24.1058C-1.3024 24.5225 2.90253 24.6173 7.08975 24.3885C9.32619 24.2664 11.5776 24.0483 13.7137 23.3699C14.3932 23.1542 15.136 22.8156 15.367 22.136C15.5012 21.7411 15.4304 21.309 15.3583 20.8982C15.162 19.7793 14.9322 18.5914 14.1559 17.7675C13.8203 17.4114 13.3989 17.1442 13.0743 16.7778C12.7635 16.4265 12.5471 15.9297 12.6867 15.4868C12.6982 15.4519 12.7281 15.4266 12.7643 15.423C15.4685 15.1387 17.8002 12.7185 17.993 9.98348C18.013 9.69959 17.9914 9.38636 17.9099 9.10683ZM16.3349 12.9663C15.5268 13.6832 14.6194 13.8144 14.1315 13.8782C12.3759 14.1078 10.9897 13.4377 10.4723 13.0853C10.4354 13.0599 10.3417 12.9957 10.433 12.8077C10.4751 12.7213 10.5459 12.6309 10.6297 12.5302C10.8276 12.2927 10.9772 12.2328 10.9838 12.213C11.0232 12.094 10.3673 12.2391 9.9935 12.7506C9.75742 13.0738 9.6988 13.4377 9.71335 13.7089C9.71886 13.812 9.86326 13.8279 9.89002 13.7284C9.89789 13.6986 9.90812 13.6693 9.92149 13.6404C9.96084 13.5547 10.0084 13.4865 10.0521 13.4346C10.0828 13.3981 10.1363 13.3933 10.1741 13.4223C10.4117 13.6023 10.6805 13.772 10.9838 13.9179C12.5821 14.6863 14.237 14.36 15.1498 14.0749C15.2458 14.0448 15.3115 14.1717 15.2317 14.2335C14.7174 14.6328 13.7298 15.2251 12.4396 15.147C11.9246 15.1157 11.4835 14.9849 11.1322 14.8346C11.0322 14.7918 10.9551 14.9305 11.0448 14.9928C11.3942 15.2339 11.7881 15.4095 12.2008 15.5047C12.2531 15.5166 12.2834 15.5729 12.2646 15.6236C12.1284 15.9924 12.2543 16.4297 12.4829 16.7568C12.732 17.1132 13.0865 17.3777 13.3997 17.6779C14.3625 18.6013 14.9456 19.9145 14.9881 21.2527C14.9983 21.5813 14.9735 21.9251 14.8091 22.2086C14.5533 22.6499 14.0292 22.8438 13.5421 22.9849C11.2089 23.6606 8.77023 23.8822 6.34493 23.992C2.38474 24.1713 -1.58844 24.0602 -5.5329 23.6602C-7.33692 23.477 -9.15668 23.228 -10.8434 22.5579C-11.1157 22.4497 -11.4329 22.249 -11.3927 21.9572C-11.3695 21.7867 -11.2263 21.6614 -11.0882 21.5603C-10.4126 21.0643 -9.63159 20.7368 -8.84624 20.449C-5.97908 19.399 -2.94156 18.8221 0.108166 18.7488C1.43177 18.7171 2.86318 18.7476 3.93655 17.9669C5.07719 17.1374 5.48639 15.5978 5.4679 14.1808C5.4498 12.7637 5.08742 11.3704 5.03824 9.95414C4.9863 8.47125 5.29281 6.98003 5.90622 5.63235C6.18203 5.0265 6.53654 4.22519 7.0386 3.77318C7.42026 3.42903 8.11196 3.19589 8.63055 3.08725C8.68917 3.07496 8.74229 3.12333 8.73796 3.1832C8.65415 4.2803 8.68248 5.38652 8.82177 6.47807C8.82885 6.53398 8.88472 6.56966 8.93823 6.55301C9.27976 6.44635 9.62128 6.3397 9.96242 6.23344C10.0061 6.21995 10.0321 6.17555 10.0246 6.13035C9.76962 4.61851 10.8229 2.99566 12.2956 2.6178C12.3531 2.60313 12.409 2.64714 12.4082 2.70701C12.3924 4.07293 12.4019 5.48327 12.9665 6.72231C13.5264 7.95065 14.8012 8.95577 16.1169 8.79003C16.1815 8.78171 16.2322 8.84078 16.2165 8.90422C16.1346 9.23569 16.2507 9.61474 16.5151 9.83123C16.7791 10.0473 17.1691 10.085 17.4744 9.93828C17.5338 9.90973 17.6023 9.95652 17.6011 10.0227C17.5901 10.5453 17.461 11.9675 16.3349 12.9663Z" fill="#8F8F8F"/>
<path d="M16.7687 7.87742C16.6605 7.50511 16.4461 7.19267 16.0841 7.08958C15.811 7.01147 15.521 7.07927 15.2385 7.10782C14.0464 7.22717 12.8132 6.5559 12.2592 5.48536C11.6057 4.22372 11.8969 2.69404 11.6691 1.28966C11.6502 1.17269 11.6226 1.0466 11.5337 0.968495C11.4137 0.862631 11.2315 0.883645 11.0765 0.921709C9.48967 1.31226 8.31125 2.95692 8.4285 4.59563C8.43165 4.63924 8.4045 4.67929 8.3624 4.69079C8.28489 4.7118 8.20699 4.73282 8.12947 4.75423C8.07203 4.77009 8.01537 4.72608 8.01576 4.66621C8.01891 3.73722 8.02127 2.80902 8.02442 1.88043C8.02521 1.71747 8.01262 1.52795 7.88041 1.43438C7.77811 1.36221 7.64079 1.3757 7.51803 1.3983C7.34334 1.43002 7.171 1.47363 7.00181 1.52874C6.83223 1.58425 6.66619 1.65086 6.50526 1.72858C6.34434 1.80629 6.18853 1.8951 6.03941 1.99383C6.00596 2.01564 5.9733 2.03903 5.93671 2.05529C5.91271 2.06599 5.88792 2.07273 5.86432 2.08265C5.79664 2.11159 5.74352 2.17106 5.6908 2.22063C5.57197 2.33283 5.45826 2.45059 5.34967 2.57271C5.24107 2.69483 5.13798 2.82132 5.04001 2.95216C4.94165 3.083 4.84879 3.21781 4.76105 3.35579C4.67331 3.49417 4.59068 3.63611 4.51277 3.78083C4.43487 3.92595 4.36208 4.07384 4.2944 4.22411C4.22633 4.37478 4.16338 4.52783 4.10515 4.68246C4.04692 4.83789 3.9934 4.9945 3.94422 5.1531C3.89543 5.3113 3.85136 5.47149 3.81162 5.63246C3.77228 5.79304 3.73726 5.95481 3.70657 6.11738C3.69713 6.16852 3.68768 6.21967 3.67903 6.27122C3.40675 7.86631 3.52715 9.50185 3.71798 11.1092C3.825 12.0097 3.95406 12.9177 3.8616 13.8197C3.76952 14.7217 3.42839 15.6352 2.74259 16.2228C1.74516 17.0781 0.303125 17.0598 -1.00592 17.088C-4.15598 17.1558 -7.29423 17.7533 -10.2515 18.8488C-11.0829 19.1569 -11.915 19.513 -12.5879 20.0934C-12.7689 20.2496 -12.9455 20.4364 -12.9892 20.6727C-13.0856 21.1949 -12.5186 21.5775 -12.0268 21.7694C-10.3058 22.4419 -8.45376 22.6928 -6.61669 22.8764C-2.44363 23.2931 1.7613 23.3879 5.94851 23.1591C8.18495 23.037 10.4363 22.8189 12.5724 22.1405C13.252 21.9248 13.9948 21.5862 14.2258 20.9066C14.3599 20.5117 14.2891 20.0795 14.2171 19.6688C14.0208 18.5499 13.791 17.362 13.0147 16.5381C12.6791 16.182 12.2577 15.9148 11.9331 15.5484C11.6222 15.1971 11.4058 14.7003 11.5455 14.2574C11.5569 14.2225 11.5868 14.1971 11.623 14.1936C14.3273 13.9093 16.6589 11.4891 16.8517 8.75407C16.8718 8.47018 16.8502 8.15695 16.7687 7.87742ZM15.1937 11.7369C14.3855 12.4538 13.4782 12.585 12.9903 12.6488C11.2347 12.8784 9.84851 12.2083 9.3311 11.8558C9.29412 11.8305 9.20048 11.7662 9.29176 11.5783C9.33386 11.4919 9.40468 11.4015 9.48849 11.3008C9.6864 11.0633 9.83592 11.0034 9.84261 10.9836C9.88195 10.8646 9.22605 11.0097 8.85226 11.5212C8.61619 11.8443 8.55756 12.2083 8.57212 12.4795C8.57763 12.5826 8.72203 12.5985 8.74878 12.499C8.75665 12.4692 8.76688 12.4399 8.78026 12.4109C8.8196 12.3253 8.86721 12.2571 8.91089 12.2052C8.94158 12.1687 8.99509 12.1639 9.03286 12.1929C9.27051 12.3729 9.53925 12.5426 9.84261 12.6885C11.4408 13.4569 13.0957 13.1306 14.0086 12.8455C14.1046 12.8154 14.1703 12.9422 14.0904 13.0041C13.5762 13.4034 12.5886 13.9957 11.2984 13.9176C10.7834 13.8863 10.3423 13.7555 9.99094 13.6052C9.891 13.5624 9.81388 13.7011 9.90359 13.7634C10.253 14.0044 10.6468 14.1801 11.0596 14.2753C11.1119 14.2872 11.1422 14.3435 11.1233 14.3942C10.9872 14.7629 11.1131 15.2003 11.3417 15.5274C11.5908 15.8838 11.9453 16.1483 12.2585 16.4484C13.2213 17.3719 13.8044 18.6851 13.8469 20.0232C13.8571 20.3519 13.8323 20.6957 13.6678 20.9792C13.4121 21.4205 12.888 21.6144 12.4009 21.7555C10.0677 22.4312 7.62899 22.6528 5.20369 22.7626C1.2435 22.9418 -2.72968 22.8308 -6.67413 22.4308C-8.47815 22.2476 -10.2979 21.9986 -11.9847 21.3285C-12.257 21.2203 -12.5741 21.0196 -12.534 20.7278C-12.5107 20.5573 -12.3675 20.432 -12.2294 20.3309C-11.5538 19.8349 -10.7728 19.5074 -9.98747 19.2195C-7.12032 18.1696 -4.08279 17.5927 -1.03307 17.5194C0.290536 17.4877 1.72195 17.5182 2.79531 16.7375C3.93596 15.908 4.34516 14.3684 4.32667 12.9514C4.30857 11.5343 3.94619 10.141 3.89701 8.72473C3.84507 7.24184 4.15158 5.75062 4.76498 4.40293C5.0408 3.79709 5.39531 2.99577 5.89737 2.54377C6.27902 2.19961 6.97073 1.96647 7.48931 1.85783C7.54794 1.84554 7.60105 1.89391 7.59673 1.95378C7.51292 3.05089 7.54125 4.15711 7.68053 5.24866C7.68761 5.30456 7.74349 5.34025 7.797 5.32359C8.13852 5.21694 8.48005 5.11028 8.82118 5.00402C8.86485 4.99054 8.89082 4.94613 8.88334 4.90093C8.62838 3.3891 9.68168 1.76624 11.1544 1.38838C11.2119 1.37371 11.2677 1.41772 11.2669 1.47759C11.2512 2.84352 11.2606 4.25385 11.8253 5.4929C12.3852 6.72124 13.66 7.72635 14.9757 7.56062C15.0402 7.55229 15.091 7.61137 15.0753 7.67481C14.9934 8.00628 15.1095 8.38533 15.3739 8.60181C15.6379 8.8179 16.0278 8.85557 16.3332 8.70887C16.3926 8.68032 16.461 8.7271 16.4598 8.79332C16.4488 9.3159 16.3198 10.7381 15.1937 11.7369Z" fill="#8F8F8F"/>
<path d="M17.601 10.0228C17.59 10.5454 17.4609 11.9676 16.3349 12.9664C15.5267 13.6833 14.6194 13.8145 14.1315 13.8783C12.3758 14.1079 10.9897 13.4378 10.4723 13.0853C10.4353 13.06 10.3416 12.9957 10.4329 12.8078C10.475 12.7214 10.5459 12.631 10.6297 12.5303C10.8276 12.2928 10.9771 12.2329 10.9838 12.2131C11.0231 12.0941 10.3672 12.2392 9.99343 12.7507C9.75736 13.0739 9.69873 13.4378 9.71329 13.709C9.7188 13.8121 9.8632 13.828 9.88995 13.7285C9.89782 13.6987 9.90805 13.6694 9.92143 13.6404C9.96078 13.5548 10.0084 13.4866 10.0521 13.4347C10.0827 13.3982 10.1363 13.3934 10.174 13.4224C10.4117 13.6024 10.6804 13.7721 10.9838 13.918C12.582 14.6864 14.2369 14.3601 15.1497 14.075C15.2458 14.0449 15.3115 14.1717 15.2316 14.2336C14.7173 14.6329 13.7297 15.2252 12.4396 15.1471C11.9245 15.1158 11.4835 14.985 11.1321 14.8347C11.0322 14.7919 10.9551 14.9306 11.0448 14.9929C11.3942 15.234 11.788 15.4096 12.2008 15.5048C12.2531 15.5167 12.2834 15.573 12.2645 15.6237C12.1284 15.9924 12.2543 16.4298 12.4829 16.7569C12.7319 17.1133 13.0864 17.3778 13.3996 17.6779C14.3624 18.6014 14.9455 19.9146 14.988 21.2527C14.9983 21.5814 14.9735 21.9252 14.809 22.2087C14.5533 22.65 14.0292 22.8439 13.5421 22.985C11.2088 23.6607 8.77016 23.8823 6.34486 23.9921C2.38467 24.1713 -1.58851 24.0603 -5.53296 23.6603C-7.33698 23.4771 -9.15674 23.2281 -10.8435 22.558C-11.1158 22.4498 -11.4329 22.2491 -11.3928 21.9573C-11.3696 21.7868 -11.2263 21.6615 -11.0882 21.5604C-10.4127 21.0644 -9.63165 20.7369 -8.8463 20.449C-5.97915 19.3991 -2.94162 18.8222 0.108102 18.7489C1.43171 18.7172 2.86312 18.7477 3.93648 17.967C5.07713 17.1375 5.48633 15.5979 5.46783 14.1809C5.44974 12.7638 5.08736 11.3705 5.03818 9.95423C4.98624 8.47134 5.29274 6.98013 5.90615 5.63244C6.18197 5.0266 6.53648 4.22528 7.03853 3.77328C7.42019 3.42912 8.1119 3.19598 8.63048 3.08734C8.68911 3.07505 8.74222 3.12342 8.73789 3.18329C8.65409 4.28039 8.68242 5.38661 8.8217 6.47816C8.82878 6.53407 8.88466 6.56975 8.93817 6.5531C9.27969 6.44644 9.62122 6.33979 9.96235 6.23353C10.006 6.22005 10.032 6.17564 10.0245 6.13044C9.76955 4.6186 10.8229 2.99575 12.2956 2.61789C12.353 2.60322 12.4089 2.64723 12.4081 2.7071C12.3924 4.07303 12.4018 5.48336 12.9664 6.7224C13.5263 7.95075 14.8011 8.95586 16.1169 8.79012C16.1814 8.7818 16.2322 8.84087 16.2164 8.90431C16.1346 9.23578 16.2507 9.61483 16.5151 9.83132C16.7791 10.0474 17.169 10.0851 17.4743 9.93837C17.5337 9.90982 17.6022 9.95661 17.601 10.0228Z" fill="white"/>
<path d="M10.6251 8.76902C10.3041 8.77021 10.0345 9.03388 10.0255 9.35663C10.0164 9.67343 10.2852 9.95256 10.6066 9.96009C10.9332 9.96802 11.2019 9.71863 11.2196 9.39152C11.2377 9.05172 10.9667 8.76744 10.6251 8.76863V8.76902Z" fill="#8F8F8F"/>
<path d="M13.6152 8.17434C13.2942 8.17553 13.0247 8.4392 13.0156 8.76195C13.0066 9.07875 13.2753 9.35788 13.5967 9.36541C13.9233 9.37334 14.1921 9.12395 14.2098 8.79684C14.2279 8.45704 13.9568 8.17315 13.6152 8.17434Z" fill="#8F8F8F"/>
<path d="M4.64929 14.9887C4.48049 15.1076 4.35026 15.3499 4.37387 15.5755C4.48285 16.6206 7.85797 17.0191 9.13475 17.1773C10.6165 17.3609 11.634 17.1519 12.2038 16.9806C12.6484 16.847 12.9411 16.5925 12.8726 16.3764C12.8309 16.2455 13.0611 16.1091 12.8612 16.1123C8.54456 16.1781 7.44287 15.7023 6.34117 15.3851C5.74587 15.2139 5.0699 14.6925 4.64929 14.9887Z" fill="white"/>
<mask id="mask1_577_2929" style="mask-type:luminance" maskUnits="userSpaceOnUse" x="4" y="14" width="9" height="4">
<path d="M4.64929 14.9887C4.48049 15.1076 4.35026 15.3499 4.37387 15.5755C4.48285 16.6206 7.85797 17.0191 9.13475 17.1773C10.6165 17.3609 11.634 17.1519 12.2038 16.9806C12.6484 16.847 12.9411 16.5925 12.8726 16.3764C12.8309 16.2455 13.0611 16.1091 12.8612 16.1123C8.54456 16.1781 7.44287 15.7023 6.34117 15.3851C5.74587 15.2139 5.0699 14.6925 4.64929 14.9887Z" fill="white"/>
</mask>
<g mask="url(#mask1_577_2929)">
<path d="M3.89258 14.8993C4.07633 15.1638 4.38087 15.5392 4.84476 15.8739C5.44046 16.3041 5.98265 16.4381 6.85259 16.6538C7.56358 16.8298 8.1042 16.8905 9.17402 17.0106C9.85156 17.0868 10.0861 17.0899 10.197 17.0899C10.6621 17.0907 11.2558 17.0915 11.9283 16.8917C12.1195 16.835 12.3685 16.7466 12.7545 16.6934C12.9867 16.6613 13.1795 16.6546 13.3054 16.6538C13.3054 16.6538 13.148 18.1605 13.1086 18.1605C13.0693 18.1605 5.00332 17.3278 5.00332 17.3278L3.15405 15.8608L3.46882 15.2264L3.89258 14.8993Z" fill="#AA9D66"/>
</g>
<path d="M4.64929 14.9887C4.48049 15.1076 4.35026 15.3499 4.37387 15.5755C4.48285 16.6206 7.85797 17.0191 9.13475 17.1773C10.6165 17.3609 11.634 17.1519 12.2038 16.9806C12.6484 16.847 13.0103 16.6341 12.853 16.4755C12.7566 16.3784 13.0611 16.1091 12.8612 16.1123C8.54456 16.1781 7.44287 15.7023 6.34117 15.3851C5.74587 15.2139 5.0699 14.6925 4.64929 14.9887Z" stroke="#8F8F8F" stroke-miterlimit="10"/>
</g>
</svg>
