<svg width="20" height="20" viewBox="0 0 20 20" fill="none" xmlns="http://www.w3.org/2000/svg">
<mask id="mask0_577_2781" style="mask-type:alpha" maskUnits="userSpaceOnUse" x="0" y="0" width="20" height="20">
<rect width="20" height="20" fill="#D9D9D9"/>
</mask>
<g mask="url(#mask0_577_2781)">
<path d="M7.14065 14.2813C10.4707 14.2813 13.1702 11.5818 13.1702 8.25178C13.1702 4.92175 10.4707 2.22222 7.14065 2.22222C3.81061 2.22222 1.11108 4.92175 1.11108 8.25178C1.11108 11.5818 3.81061 14.2813 7.14065 14.2813Z" stroke="#8F8F8F" stroke-linecap="round" stroke-linejoin="round"/>
<g filter="url(#filter0_i_577_2781)">
<ellipse cx="6.9444" cy="8.05547" rx="4.63812" ry="4.63812" fill="white"/>
</g>
<path d="M11.0825 8.05547C11.0825 10.3409 9.22982 12.1936 6.9444 12.1936C4.65898 12.1936 2.80627 10.3409 2.80627 8.05547C2.80627 5.77005 4.65898 3.91735 6.9444 3.91735C9.22982 3.91735 11.0825 5.77005 11.0825 8.05547Z" stroke="#8F8F8F"/>
<path d="M11.2036 18.4C15.3021 18.4 18.6246 15.0775 18.6246 10.979C18.6246 6.8805 15.3021 3.55801 11.2036 3.55801C7.10509 3.55801 3.78259 6.8805 3.78259 10.979C3.78259 15.0775 7.10509 18.4 11.2036 18.4Z" fill="white" stroke="#8F8F8F" stroke-linecap="round" stroke-linejoin="round"/>
<g filter="url(#filter1_i_577_2781)">
<circle cx="11.3744" cy="11.15" r="6.02956" fill="white"/>
</g>
<circle cx="11.3744" cy="11.15" r="5.52956" stroke="#8F8F8F"/>
<path d="M12.9443 13.5536C12.8107 13.5939 12.6605 13.605 12.5187 13.5989C12.2609 13.588 12.0049 13.5327 11.7478 13.5523C11.4952 13.5716 11.2579 13.6623 11.0166 13.7306C10.7754 13.7993 10.5115 13.8459 10.2705 13.777C10.0179 13.7047 9.8265 13.5104 9.73629 13.2917C9.64608 13.0731 9.64731 12.8327 9.68951 12.6032C9.76565 12.1897 10.0922 11.9875 10.3185 11.622C10.5133 11.3072 10.5818 10.6966 10.9377 10.4935C11.0665 10.4201 11.2313 10.3841 11.3765 10.4278C11.6062 10.4967 11.7065 10.7239 11.8135 10.9147C12.1422 11.5001 12.7605 11.9229 13.1477 12.4805C13.2443 12.6196 13.3272 12.7696 13.3535 12.9305C13.3801 13.0916 13.3443 13.2658 13.2253 13.3911C13.1513 13.469 13.0532 13.5213 12.944 13.5541L12.9443 13.5536Z" fill="#8F8F8F"/>
<path d="M9.61994 9.57528C9.51628 9.25645 9.49549 8.85307 9.70556 8.57691C9.81167 8.43724 10.0034 8.33626 10.1927 8.36462C10.3765 8.39245 10.5116 8.52947 10.607 8.66967C10.8205 8.984 10.9134 9.35955 10.8673 9.72264C10.8544 9.82309 10.8299 9.92565 10.7651 10.0091C10.6297 10.1838 10.3376 10.2299 10.1156 10.147C9.89362 10.064 9.73889 9.87821 9.65817 9.67944C9.64471 9.64605 9.63187 9.61106 9.62025 9.57502L9.61994 9.57528Z" fill="#8F8F8F"/>
<path d="M12.5597 8.80741C12.6221 9.0735 12.5991 9.3547 12.493 9.61019C12.4478 9.71885 12.3857 9.82539 12.2869 9.90199C12.1882 9.97858 12.0463 10.0205 11.92 9.986C11.8133 9.95711 11.7331 9.88052 11.6686 9.80074C11.3766 9.43977 11.2757 8.8893 11.5439 8.49414C11.6393 8.35421 11.809 8.2421 11.9958 8.24501C12.1386 8.2474 12.2729 8.3171 12.3646 8.41278C12.4563 8.50845 12.5102 8.62798 12.5447 8.74937C12.5502 8.76871 12.5551 8.78806 12.5597 8.80741Z" fill="#8F8F8F"/>
<path d="M13.9701 10.0657C13.9808 10.0867 13.9903 10.1079 13.9982 10.1296C14.0676 10.3207 14.0331 10.5319 13.945 10.7169C13.8038 11.013 13.4827 11.4569 13.0451 11.3662C12.8812 11.3323 12.7479 11.2202 12.6757 11.0872C12.6038 10.9541 12.5876 10.8025 12.6002 10.6557C12.6194 10.4336 12.7038 10.2139 12.8564 10.0355C13.0112 9.8545 13.2601 9.71377 13.5157 9.74584C13.7169 9.77102 13.886 9.90327 13.9701 10.066V10.0657Z" fill="#8F8F8F"/>
<path d="M8.52946 11.0012C8.48634 10.8746 8.46372 10.7431 8.47075 10.6114C8.48176 10.4023 8.59704 10.0678 8.89243 10.0591C9.00894 10.0556 9.11504 10.116 9.20219 10.1834C9.54529 10.4489 9.71959 10.8716 9.64895 11.2673C9.61837 11.438 9.52388 11.6219 9.33674 11.6773C9.20586 11.716 9.05694 11.6803 8.94533 11.6084C8.83403 11.5369 8.75452 11.4338 8.68786 11.3278C8.62303 11.2249 8.56799 11.1149 8.52946 11.0012Z" fill="#8F8F8F"/>
</g>
<defs>
<filter id="filter0_i_577_2781" x="2.30627" y="3.41735" width="9.27625" height="9.27625" filterUnits="userSpaceOnUse" color-interpolation-filters="sRGB">
<feFlood flood-opacity="0" result="BackgroundImageFix"/>
<feBlend mode="normal" in="SourceGraphic" in2="BackgroundImageFix" result="shape"/>
<feColorMatrix in="SourceAlpha" type="matrix" values="0 0 0 0 0 0 0 0 0 0 0 0 0 0 0 0 0 0 127 0" result="hardAlpha"/>
<feOffset/>
<feGaussianBlur stdDeviation="3.5"/>
<feComposite in2="hardAlpha" operator="arithmetic" k2="-1" k3="1"/>
<feColorMatrix type="matrix" values="0 0 0 0 0 0 0 0 0 0 0 0 0 0 0 0 0 0 0.33 0"/>
<feBlend mode="normal" in2="shape" result="effect1_innerShadow_577_2781"/>
</filter>
<filter id="filter1_i_577_2781" x="5.34485" y="5.12047" width="12.0591" height="12.0591" filterUnits="userSpaceOnUse" color-interpolation-filters="sRGB">
<feFlood flood-opacity="0" result="BackgroundImageFix"/>
<feBlend mode="normal" in="SourceGraphic" in2="BackgroundImageFix" result="shape"/>
<feColorMatrix in="SourceAlpha" type="matrix" values="0 0 0 0 0 0 0 0 0 0 0 0 0 0 0 0 0 0 127 0" result="hardAlpha"/>
<feOffset/>
<feGaussianBlur stdDeviation="3.5"/>
<feComposite in2="hardAlpha" operator="arithmetic" k2="-1" k3="1"/>
<feColorMatrix type="matrix" values="0 0 0 0 0 0 0 0 0 0 0 0 0 0 0 0 0 0 0.33 0"/>
<feBlend mode="normal" in2="shape" result="effect1_innerShadow_577_2781"/>
</filter>
</defs>
</svg>
