<svg width="20" height="20" viewBox="0 0 20 20" fill="none" xmlns="http://www.w3.org/2000/svg">
<mask id="mask0_577_2769" style="mask-type:alpha" maskUnits="userSpaceOnUse" x="0" y="0" width="20" height="20">
<rect width="20" height="20" fill="#D9D9D9"/>
</mask>
<g mask="url(#mask0_577_2769)">
<path d="M14.864 18.214C14.4798 18.3371 14.0482 18.3711 13.6403 18.3525C12.8993 18.3193 12.1635 18.1501 11.4242 18.21C10.6981 18.2691 10.016 18.5459 9.32241 18.7548C8.62883 18.9644 7.8702 19.1069 7.17751 18.8964C6.45141 18.6754 5.90112 18.0821 5.6418 17.4143C5.38248 16.7464 5.38599 16.0122 5.5073 15.3112C5.72619 14.0484 6.66502 13.4308 7.31552 12.3145C7.87548 11.3528 8.07239 9.48772 9.09561 8.86765C9.46569 8.64343 9.9395 8.53333 10.3571 8.6669C11.0172 8.87737 11.3056 9.5711 11.6132 10.1539C12.5582 11.9421 14.3357 13.2332 15.4485 14.9364C15.7263 15.3614 15.9646 15.8196 16.0402 16.3109C16.1166 16.8031 16.0138 17.3349 15.6718 17.7178C15.4591 17.9558 15.1769 18.1153 14.8631 18.2157L14.864 18.214Z" fill="#FFE888"/>
<path d="M5.30732 6.06341C5.00932 5.0896 4.94955 3.85755 5.55346 3.01406C5.85849 2.58746 6.40966 2.27904 6.95379 2.36566C7.48211 2.45066 7.87065 2.86916 8.14491 3.29738C8.7585 4.25744 9.02573 5.40449 8.89299 6.51349C8.85607 6.82029 8.78575 7.13356 8.59939 7.38855C8.20996 7.922 7.37047 8.06285 6.73227 7.80948C6.09408 7.55611 5.64927 6.98866 5.4172 6.38154C5.37852 6.27955 5.3416 6.17269 5.3082 6.0626L5.30732 6.06341Z" fill="#FFE888"/>
<path d="M13.7582 3.71791C13.9375 4.53064 13.8716 5.38951 13.5666 6.16986C13.4365 6.50175 13.258 6.82716 12.9741 7.06111C12.6902 7.29505 12.2823 7.42295 11.9192 7.31771C11.6124 7.22948 11.3821 6.99554 11.1966 6.75188C10.3571 5.64935 10.0671 3.96804 10.838 2.76109C11.1123 2.33368 11.6001 1.99127 12.1372 2.00017C12.5478 2.00746 12.9337 2.22035 13.1974 2.51258C13.4611 2.8048 13.6158 3.16988 13.7151 3.54063C13.731 3.59972 13.745 3.65882 13.7582 3.71791Z" fill="#FFE888"/>
<path d="M17.813 7.56107C17.8438 7.62502 17.871 7.68978 17.8939 7.75616C18.0935 8.3398 17.9941 8.98496 17.7409 9.54999C17.3348 10.4542 16.4118 11.8101 15.1539 11.5332C14.6827 11.4296 14.2994 11.0872 14.092 10.6808C13.8854 10.2745 13.8388 9.81145 13.8749 9.36299C13.9302 8.68464 14.1729 8.01357 14.6115 7.46879C15.0563 6.9159 15.7719 6.48606 16.5068 6.58401C17.0852 6.66091 17.5713 7.06485 17.813 7.56188V7.56107Z" fill="#FFE888"/>
<path d="M2.17242 10.4189C2.04847 10.0319 1.98342 9.63043 2.00364 9.22812C2.03529 8.58943 2.36669 7.56785 3.21586 7.54114C3.55078 7.53062 3.85581 7.71518 4.10634 7.92079C5.09264 8.7319 5.59371 10.023 5.39064 11.2316C5.30274 11.7529 5.03111 12.3147 4.49313 12.4839C4.11689 12.6021 3.68879 12.4928 3.36794 12.2734C3.04796 12.0549 2.8194 11.74 2.62777 11.4162C2.44141 11.1021 2.28318 10.7662 2.17242 10.4189Z" fill="#FFE888"/>
</g>
</svg>
