<svg width="209" height="161" viewBox="0 0 209 161" fill="none" xmlns="http://www.w3.org/2000/svg">
<g filter="url(#filter0_d_542_3473)">
<path d="M185.631 33.3981C186.446 37.7409 182.469 49.7002 174.472 60.2262C166.475 70.7523 152.185 73.9434 149.809 76.6943C147.433 79.4452 145.989 82.6326 147.457 86.0698C148.924 89.5069 158.903 89.8029 166.164 88.5035C176.194 86.7087 185.081 77.4827 188.344 73.5038C191.608 69.525 199.204 59.9626 200.841 45.1486L200.841 45.1438C201.241 41.5301 202.976 25.8443 195.31 19.5001L195.307 19.4975C194.503 18.8334 190.563 15.5809 187.001 17.2392C185.106 18.1186 183.62 20.2451 183.26 22.4059C183.12 23.218 183.154 23.9897 184.281 28.3926C184.909 30.8541 185.371 32.0336 185.631 33.3981Z" fill="white" stroke="#353535" stroke-width="2" stroke-linecap="round" stroke-linejoin="round"/>
<path d="M180.596 171.108V126.675L180.125 107.224C180.125 82.1056 161.799 61.7326 139.206 61.7326H121.38C116.596 43.1252 110.855 32.5252 103.337 24.756C95.8182 16.9868 86.9119 10.7275 75.1347 9.91206C64.9288 9.20539 52.5545 10.6872 52.5545 10.6872C62.7301 16.4063 69.9456 31.346 59.8736 56.642C59.1764 58.3912 58.432 60.0881 57.6594 61.7326C53.7871 69.8923 49.0007 76.6379 43.9789 81.1943V162.445C35.9891 163.535 29.8461 170.092 29.8461 178H56.623C59.1293 178 61.2963 176.335 62.2667 173.946C62.6248 173.087 62.8226 172.124 62.8226 171.108V136.102H83.5508V162.644C76.5503 164.174 71.3023 170.469 71.3023 178H96.1949C98.72 178 100.896 176.314 101.857 173.904C102.206 173.056 102.395 172.103 102.395 171.108V136.102H119.354V162.466C111.882 163.618 106.163 170.134 106.163 178H131.056C133.581 178 135.757 176.314 136.718 173.904C137.067 173.056 137.255 172.103 137.255 171.108V136.102H162.695V162.466C155.223 163.618 149.504 170.134 149.504 178H174.397C176.922 178 179.098 176.314 180.059 173.904C180.408 173.056 180.596 172.103 180.596 171.108Z" fill="white" stroke="#353535" stroke-width="2" stroke-linecap="round" stroke-linejoin="round"/>
<path d="M121.918 61.5759C122.041 62.0883 122.144 62.6111 122.248 63.1444C123.704 70.5373 123.316 75.6193 120.831 81.4437C115.586 93.7617 100.965 96.125 96.7309 96.606C80.6643 98.4463 68.2268 89.7464 63.6526 86.1492" stroke="#353535" stroke-width="2" stroke-miterlimit="10" stroke-linecap="round"/>
<path d="M59.8609 60.9469C58.9738 62.7112 58.4616 64.2932 57.489 65.948C52.6368 74.1562 46.4052 80.9796 40.4735 85.3632C33.067 90.8536 25.4574 92.7823 19.2586 89.7358C7.08539 83.7303 5.525 61.1332 15.7637 39.2483C26.0132 17.3526 44.1928 4.47591 56.366 10.4704C56.847 10.7115 57.3065 10.9526 57.7661 11.2375C68.8812 17.8786 72.7395 35.3799 59.8609 60.9578V60.9469Z" fill="#353535"/>
<path d="M77.8337 51.5342C80.3073 51.5342 82.3126 49.3233 82.3126 46.5959C82.3126 43.8686 80.3073 41.6577 77.8337 41.6577C75.3601 41.6577 73.3549 43.8686 73.3549 46.5959C73.3549 49.3233 75.3601 51.5342 77.8337 51.5342Z" fill="#353535"/>
<path d="M82.0623 46.596C82.0623 49.988 79.5736 52.6951 76.5538 52.6951C73.5339 52.6951 71.0453 49.988 71.0453 46.596C71.0453 43.204 73.5339 40.4968 76.5538 40.4968C79.5736 40.4968 82.0623 43.204 82.0623 46.596Z" stroke="#353535" stroke-width="0.5"/>
<path d="M107.656 46.596C107.656 49.988 105.167 52.6951 102.148 52.6951C99.1277 52.6951 96.6391 49.988 96.6391 46.596C96.6391 43.204 99.1277 40.4968 102.148 40.4968C105.167 40.4968 107.656 43.204 107.656 46.596Z" stroke="#353535" stroke-width="0.5"/>
<path d="M103.427 51.5342C105.901 51.5342 107.906 49.3233 107.906 46.5959C107.906 43.8686 105.901 41.6577 103.427 41.6577C100.953 41.6577 98.9482 43.8686 98.9482 46.5959C98.9482 49.3233 100.953 51.5342 103.427 51.5342Z" fill="#353535"/>
<path d="M106.645 68.8119C106.749 70.6837 105.964 70.9974 104.121 72.2731C102.562 73.3501 100.143 75.5251 97.8082 75.682C95.4738 75.8388 95.039 74.9814 93.404 74.1762C91.3248 73.1619 88.4139 71.9489 88.31 70.0249C88.1209 66.5637 92.0809 63.4895 97.1371 63.1653C102.193 62.8411 106.456 65.3717 106.635 68.8328L106.645 68.8119Z" fill="#353535"/>
<path d="M81.6091 75.6924C81.6847 77.2086 84.8036 82.3011 90.115 81.9664C94.3774 81.6946 96.863 79.0386 98.1483 74.1239" stroke="#353535" stroke-width="2" stroke-miterlimit="10" stroke-linecap="round"/>
<path d="M98.1483 72.0327C98.4791 76.0272 100.615 80.0007 103.819 80.3981C108.072 80.9209 110.907 78.8296 111.852 75.6926" stroke="#353535" stroke-width="2" stroke-miterlimit="10" stroke-linecap="round"/>
</g>
<defs>
<filter id="filter0_d_542_3473" x="0" y="0.721069" width="207.271" height="184.279" filterUnits="userSpaceOnUse" color-interpolation-filters="sRGB">
<feFlood flood-opacity="0" result="BackgroundImageFix"/>
<feColorMatrix in="SourceAlpha" type="matrix" values="0 0 0 0 0 0 0 0 0 0 0 0 0 0 0 0 0 0 127 0" result="hardAlpha"/>
<feOffset dx="-2" dy="-1"/>
<feGaussianBlur stdDeviation="3.5"/>
<feComposite in2="hardAlpha" operator="out"/>
<feColorMatrix type="matrix" values="0 0 0 0 0 0 0 0 0 0 0 0 0 0 0 0 0 0 0.25 0"/>
<feBlend mode="normal" in2="BackgroundImageFix" result="effect1_dropShadow_542_3473"/>
<feBlend mode="normal" in="SourceGraphic" in2="effect1_dropShadow_542_3473" result="shape"/>
</filter>
</defs>
</svg>
