<svg width="20" height="20" viewBox="0 0 20 20" fill="none" xmlns="http://www.w3.org/2000/svg">
<mask id="mask0_577_2761" style="mask-type:alpha" maskUnits="userSpaceOnUse" x="0" y="0" width="20" height="20">
<rect width="20" height="20" fill="#D9D9D9"/>
</mask>
<g mask="url(#mask0_577_2761)">
<path d="M14.7779 17.7166L14.7115 17.7379C14.4008 17.8374 14.0324 17.8698 13.6631 17.853L13.6627 17.853C13.4047 17.8414 13.1531 17.8128 12.8829 17.7822C12.7861 17.7712 12.6869 17.7599 12.5841 17.7491C12.2083 17.7094 11.8016 17.6778 11.3838 17.7116L11.3837 17.7116C10.7642 17.762 10.1571 17.9602 9.6201 18.1354C9.46663 18.1854 9.3189 18.2337 9.17824 18.276L9.17773 18.2762C8.5028 18.4802 7.86643 18.5831 7.32309 18.4181L14.7779 17.7166ZM14.7779 17.7166C14.998 17.637 15.1725 17.5261 15.2989 17.3848M14.7779 17.7166L15.2989 17.3848M15.2989 17.3848C15.5184 17.139 15.6054 16.7696 15.5461 16.3877L15.546 16.387C15.4865 16.0006 15.294 15.6138 15.03 15.21L15.03 15.2099C14.557 14.486 13.9564 13.8388 13.3224 13.1556C13.2489 13.0764 13.175 12.9967 13.1007 12.9164C12.4001 12.1582 11.6775 11.3458 11.1712 10.3876L11.1711 10.3874C11.1309 10.3112 11.0932 10.2381 11.057 10.1677C10.94 9.94009 10.8376 9.74094 10.7093 9.55976C10.5513 9.33667 10.3939 9.20345 10.2052 9.14328L10.2047 9.14313C9.96378 9.06606 9.64097 9.12186 9.35474 9.29527L15.2989 17.3848ZM6.10789 17.2333C5.89355 16.6813 5.88726 16.0479 5.99996 15.3966L7.32287 18.418C6.76757 18.2489 6.32135 17.783 6.10789 17.2333ZM5.99998 15.3965C6.08953 14.88 6.32439 14.4857 6.64763 14.0604C6.73027 13.9517 6.82282 13.8365 6.92068 13.7147C7.1879 13.382 7.49473 13 7.74752 12.5662L7.74761 12.5661C7.91264 12.2826 8.04266 11.9482 8.15734 11.6242C8.20725 11.4833 8.25287 11.3486 8.29779 11.216C8.36315 11.0231 8.42702 10.8346 8.50044 10.6374C8.74883 9.96998 9.00599 9.50663 9.35471 9.29529L5.99998 15.3965Z" stroke="#8F8F8F"/>
<path d="M6.91677 7.34477C6.44445 7.15725 6.08218 6.72042 5.88448 6.20364C5.8495 6.11136 5.8164 6.01545 5.78666 5.91743L5.75367 5.80871C5.50393 4.91723 5.51021 3.93336 5.96 3.30513L5.96018 3.30488C6.18343 2.99266 6.56189 2.80978 6.87479 2.85938C7.18398 2.90931 7.46944 3.16988 7.7237 3.56679C8.27634 4.43157 8.51518 5.46277 8.39653 6.45407C8.36245 6.73712 8.30443 6.94475 8.19571 7.09352L8.19554 7.09374C8.0904 7.23778 7.90485 7.35317 7.6575 7.40451C7.41074 7.45573 7.14108 7.43382 6.91677 7.34477L6.73227 7.80948L6.91677 7.34477Z" stroke="#8F8F8F"/>
<path d="M12.0574 6.83719L12.0584 6.83748C12.2261 6.88608 12.467 6.8311 12.6561 6.67522C12.845 6.51965 12.9842 6.28537 13.1009 5.98782C13.3698 5.29995 13.4279 4.54216 13.2701 3.82623C13.2579 3.77182 13.2456 3.72013 13.2322 3.67003L12.0574 6.83719ZM12.0574 6.83719C11.9104 6.79491 11.7627 6.66995 11.5945 6.44903L11.5945 6.44898M12.0574 6.83719L11.5945 6.44898M11.5945 6.44898C10.8445 5.46403 10.6315 4.0137 11.2591 3.0307M11.5945 6.44898L11.2591 3.0307M11.2591 3.0307C11.4664 2.70794 11.8091 2.49493 12.1287 2.5001C12.3745 2.50456 12.6361 2.63695 12.8262 2.84756C13.017 3.05896 13.1439 3.3405 13.2322 3.66996L11.2591 3.0307Z" stroke="#8F8F8F"/>
<path d="M17.3634 7.78057L17.3637 7.78049C17.3867 7.82841 17.4057 7.87404 17.421 7.91841C17.567 8.34623 17.5039 8.85616 17.2847 9.34554C17.0967 9.76382 16.7971 10.2656 16.4222 10.6222C16.0502 10.9762 15.667 11.1342 15.2614 11.0449L15.2613 11.0449C14.9593 10.9785 14.6885 10.7495 14.5375 10.4539C14.3868 10.1571 14.3418 9.79547 14.3732 9.40337C14.4214 8.81425 14.6316 8.24111 15.001 7.78236L15.0011 7.78221C15.3807 7.31037 15.9393 7.0128 16.4407 7.07963L16.4409 7.07965C16.83 7.13139 17.1842 7.41223 17.3634 7.78057Z" stroke="#8F8F8F"/>
<path d="M2.64859 10.2663L2.64878 10.2669C2.74624 10.5725 2.88745 10.874 3.05777 11.161L3.05806 11.1615C3.23713 11.4641 3.42056 11.7039 3.64995 11.8605L3.65014 11.8607C3.88022 12.018 4.15018 12.0675 4.34328 12.0069C4.6074 11.9237 4.82001 11.6082 4.89756 11.1488C5.06943 10.1258 4.64414 9.01054 3.78896 8.30715C3.56067 8.11982 3.37724 8.03632 3.23158 8.04089L2.64859 10.2663ZM2.64859 10.2663C2.53957 9.92602 2.48633 9.58511 2.50301 9.25321L2.50303 9.25286M2.64859 10.2663L2.50303 9.25286M2.50303 9.25286C2.51595 8.99215 2.59219 8.65784 2.73759 8.40271M2.50303 9.25286L2.73759 8.40271M2.73759 8.40271C2.8791 8.15439 3.0411 8.04689 3.23156 8.04089L2.73759 8.40271Z" stroke="#8F8F8F"/>
</g>
</svg>
