<svg width="22" height="22" viewBox="0 0 22 22" fill="none" xmlns="http://www.w3.org/2000/svg">
<path d="M6.99282 20.8174C7.5159 20.8819 8.07693 20.831 8.59412 20.723C9.53393 20.5274 10.4322 20.1722 11.3936 20.087C12.3379 20.0037 13.2816 20.1872 14.2226 20.2878C15.1639 20.3894 16.1711 20.3978 17.0037 20.0028C17.8763 19.5884 18.4286 18.7707 18.5895 17.9264C18.7505 17.0821 18.558 16.2147 18.2234 15.4114C17.6201 13.9645 16.2606 13.4323 15.1424 12.2496C14.1797 11.2307 13.4504 9.06704 11.9823 8.54973C11.4513 8.36268 10.8168 8.33246 10.3167 8.57847C9.52575 8.96659 9.33434 9.84766 9.08979 10.6017C8.33819 12.9153 6.39408 14.8169 5.40587 17.0654C5.15917 17.6265 4.97159 18.2185 5.00061 18.8154C5.02871 19.4134 5.29644 20.0206 5.83203 20.4011C6.16517 20.6377 6.56708 20.7667 6.99436 20.8192L6.99282 20.8174Z" fill="#FFE888"/>
<path d="M16.1118 4.43563C16.2439 3.22135 16.0051 1.75201 15.0164 0.882093C14.5168 0.442039 13.7326 0.193647 13.0584 0.410844C12.4041 0.622789 12.014 1.19958 11.7726 1.76375C11.2332 3.02833 11.1848 4.44093 11.6385 5.72418C11.7643 6.07914 11.9344 6.43471 12.2382 6.69689C12.873 7.24548 13.9834 7.23492 14.7352 6.80072C15.4871 6.36651 15.911 5.60174 16.0526 4.83495C16.076 4.7062 16.0959 4.57207 16.1105 4.43485L16.1118 4.43563Z" fill="#FFE888"/>
<path d="M4.69657 3.44565C4.67511 4.44442 4.9793 5.44601 5.56937 6.30433C5.8208 6.6693 6.13244 7.01642 6.55567 7.23313C6.97889 7.44984 7.53358 7.51502 7.97123 7.31401C8.34124 7.14496 8.57609 6.81977 8.75108 6.49255C9.54318 5.01187 9.48408 2.96275 8.18862 1.69832C7.72826 1.25081 7.0163 0.948872 6.33126 1.0727C5.80779 1.16792 5.36845 1.50104 5.10577 1.90219C4.84309 2.30334 4.73854 2.76764 4.70632 3.22695C4.7012 3.30016 4.69832 3.373 4.69657 3.44565Z" fill="#FFE888"/>
<path d="M0.492353 8.84513C0.469349 8.92723 0.451052 9.00955 0.438793 9.09286C0.33282 9.82503 0.625061 10.5669 1.09365 11.1816C1.84478 12.165 3.37297 13.5734 4.91185 12.9808C5.48828 12.7588 5.89111 12.2731 6.05258 11.7489C6.21292 11.2249 6.15403 10.6676 5.99313 10.1449C5.74864 9.35453 5.26641 8.61226 4.56565 8.06066C3.85494 7.50078 2.82925 7.1435 1.91389 7.41433C1.19339 7.62728 0.674698 8.20742 0.49256 8.84609L0.492353 8.84513Z" fill="#FFE888"/>
<path d="M21.2379 8.92313C21.2975 8.43948 21.278 7.95103 21.1491 7.47961C20.9452 6.73112 20.2596 5.59315 19.1661 5.7407C18.7348 5.79891 18.3917 6.08147 18.1238 6.37743C17.0692 7.54452 16.7585 9.17682 17.3277 10.563C17.5736 11.1608 18.065 11.7677 18.7967 11.8543C19.3084 11.9147 19.8283 11.6951 20.1827 11.3681C20.5362 11.0422 20.7481 10.6216 20.9105 10.1984C21.0686 9.78768 21.1851 9.3571 21.2379 8.92313Z" fill="#FFE888"/>
</svg>
