<svg width="20" height="20" viewBox="0 0 20 20" fill="none" xmlns="http://www.w3.org/2000/svg">
<mask id="mask0_577_2855" style="mask-type:alpha" maskUnits="userSpaceOnUse" x="0" y="0" width="20" height="20">
<rect width="20" height="20" fill="#D9D9D9"/>
</mask>
<g mask="url(#mask0_577_2855)">
<path d="M10 18C14.4182 18 18 14.4182 18 10C18 5.58172 14.4182 2 10 2C5.58172 2 2 5.58172 2 10C2 14.4182 5.58172 18 10 18Z" stroke="#FFE888" stroke-linecap="round" stroke-linejoin="round"/>
<path d="M14 16.7999L13.6 14.7999L11.6 13.9999V11.1999L14 10.3999L17.6 10.7999" fill="#FFE888"/>
<path d="M14 16.7999L13.6 14.7999L11.6 13.9999V11.1999L14 10.3999L17.6 10.7999C17.6 10.7999 17.2682 12.8591 16.6335 13.9999C15.9038 15.3117 14 16.7999 14 16.7999Z" stroke="#FFE888" stroke-linecap="round" stroke-linejoin="round"/>
<path d="M15.6 4.79996L15.2 5.99996L12.4 6.39996V8.79996L14.4 7.99996H16L17.6 8.79996" fill="#FFE888"/>
<path d="M15.6 4.79996L15.2 5.99996L12.4 6.39996V8.79996L14.4 7.99996H16L17.6 8.79996L17.1579 6.63158L15.6 4.79996Z" stroke="#FFE888" stroke-linecap="round" stroke-linejoin="round"/>
<path d="M2.10522 8.6526L4.10522 7.0526L6.10523 6.6526L7.70522 4.2526L6.90522 2.6526" fill="#FFE888"/>
<path d="M2.10522 8.6526L4.10522 7.0526L6.10522 6.6526L7.70523 4.2526L6.90522 2.6526C6.57541 2.66665 5.95786 3.09475 4.94733 4.10527C3.9368 5.1158 3.12277 6.49124 2.84207 7.05264L2.10522 8.6526Z" stroke="#FFE888" stroke-linecap="round" stroke-linejoin="round"/>
<path d="M7.39799 15.3259C7.27248 15.3051 7.13767 15.26 7.01215 15.201C6.77972 15.0969 6.55658 14.9617 6.32415 14.8819C6.09636 14.8021 5.87323 14.7813 5.64544 14.7431C5.41765 14.705 5.18057 14.6425 4.97138 14.5003C4.75289 14.3547 4.59949 14.1396 4.5437 13.9454C4.48792 13.7511 4.51581 13.5742 4.57624 13.4216C4.68781 13.1441 5.00392 13.1164 5.2503 12.9325C5.45949 12.773 5.58966 12.3498 5.92901 12.3325C6.05452 12.3255 6.20328 12.3602 6.3288 12.4469C6.52869 12.5822 6.59377 12.7869 6.66815 12.9672C6.90058 13.5187 7.40729 14.0598 7.69551 14.6113C7.76524 14.7501 7.82567 14.8888 7.83032 15.0172C7.83497 15.1455 7.78383 15.26 7.66297 15.3085C7.58859 15.3397 7.49562 15.3397 7.39334 15.3259H7.39799Z" fill="#FFE888"/>
<path d="M4.84592 11.1706C4.78548 10.8965 4.81337 10.5948 5.03186 10.4664C5.14343 10.404 5.32473 10.4005 5.49208 10.4907C5.65479 10.5774 5.76171 10.73 5.83144 10.8688C5.98949 11.1775 6.03133 11.4897 5.94765 11.7394C5.92441 11.8088 5.89187 11.8747 5.82214 11.9128C5.68268 11.9926 5.41305 11.9163 5.22246 11.7741C5.03186 11.6319 4.911 11.4376 4.86451 11.2607C4.85521 11.2295 4.85056 11.2018 4.84127 11.1706H4.84592Z" fill="#FFE888"/>
<path d="M7.57464 11.6942C7.60253 11.9128 7.55139 12.1105 7.42588 12.2596C7.37474 12.322 7.30501 12.3775 7.20739 12.3984C7.10977 12.4192 6.9796 12.3984 6.86804 12.3255C6.77506 12.2631 6.70998 12.1798 6.66349 12.0966C6.44036 11.722 6.41247 11.2815 6.69604 11.0907C6.79831 11.0213 6.96101 11.004 7.12836 11.0734C7.25853 11.1288 7.37009 11.2294 7.43982 11.3335C7.50955 11.4376 7.54674 11.5451 7.56534 11.6491C7.56534 11.6665 7.56999 11.6804 7.57464 11.6977V11.6942Z" fill="#FFE888"/>
<path d="M8.70426 13.1407C8.71356 13.1615 8.71821 13.1789 8.72286 13.1997C8.7647 13.3662 8.70891 13.5084 8.61129 13.6124C8.45323 13.7789 8.11388 13.987 7.73269 13.7581C7.58858 13.6714 7.48166 13.5396 7.43052 13.4147C7.37939 13.2899 7.38404 13.1719 7.41193 13.0679C7.45377 12.9118 7.55604 12.78 7.70944 12.7071C7.8675 12.6308 8.10923 12.6204 8.33237 12.7383C8.50902 12.832 8.64848 12.9916 8.70426 13.1407Z" fill="#FFE888"/>
<path d="M3.70697 11.8157C3.68372 11.7081 3.67442 11.6006 3.69767 11.507C3.73021 11.3578 3.86967 11.1532 4.13929 11.2572C4.24621 11.2988 4.33454 11.3821 4.40427 11.4619C4.68319 11.7844 4.79476 12.159 4.68784 12.4261C4.64135 12.5406 4.53443 12.6412 4.36243 12.6134C4.24156 12.5926 4.1114 12.5128 4.01843 12.4192C3.92545 12.3255 3.86502 12.2215 3.81853 12.1174C3.77205 12.0168 3.73486 11.9162 3.71161 11.8191L3.70697 11.8157Z" fill="#FFE888"/>
</g>
</svg>
