<svg width="67" height="28" viewBox="0 0 67 28" fill="none" xmlns="http://www.w3.org/2000/svg">
<path d="M8.14788 13.9421C7.95361 13.9672 7.73452 13.9672 7.53952 13.9672C4.79132 13.9672 3.38106 12.2455 4.84025 8.64905C4.15959 8.82625 3.52713 8.9274 2.9436 8.85135C1.04622 8.70001 -0.0237021 7.30753 0.000398549 5.1036C0.0244992 1.98859 1.72688 0.291915 5.13165 0.291915C7.83092 0.291915 9.36314 1.3049 10.4331 2.64718C10.6273 2.87533 11.0655 2.54604 10.9195 2.29279C10.6763 1.96349 9.72757 1.07751 9.11994 0.824266C10.8713 0.418919 12.4517 0.266819 14.6886 0.292676C17.8013 0.317773 19.6497 1.584 20.5736 3.68603C21.6194 6.09149 21.0111 10.4225 20.1361 12.0432C19.5037 13.2083 18.4337 13.968 16.8285 13.968C15.9777 13.968 15.2232 13.7398 14.6886 13.2592C14.6886 14.095 14.6645 14.9049 14.5185 15.7407C16.0507 15.6647 17.5829 15.5635 19.1633 15.3863C21.0359 15.1582 22.1058 16.7035 22.1058 18.5774C22.1058 20.9578 21.0359 22.1228 19.1385 22.3251C13.7151 22.9077 8.68101 22.9077 3.25837 22.3251C1.40992 22.1228 0.315898 20.9578 0.315898 18.5774C0.315898 16.7035 1.40992 15.1589 3.25837 15.3863C5.00968 15.5635 6.71133 15.6905 8.38962 15.7666C8.24355 15.1331 8.17052 14.5254 8.14642 13.9429L8.14788 13.9421ZM13.7896 11.1564C13.7655 10.4218 13.9116 9.5107 14.2519 8.42166C13.5223 8.57376 12.1121 8.64981 11.5037 8.64981C11.5037 9.3586 11.4548 9.9921 11.3576 10.5488C12.1603 10.5488 13.1331 10.6248 13.7896 11.1564Z" fill="black"/>
<path d="M24.973 19.1645C23.5868 19.0634 22.736 18.4808 22.736 17.3158C22.736 16.3279 23.5868 15.543 24.973 15.6442C30.1773 15.9986 36.8648 15.9735 42.2641 15.6442C43.6744 15.543 44.5259 16.3279 44.5259 17.3158C44.5259 18.4808 43.6744 19.0634 42.24 19.1645C40.9751 19.2657 39.6379 19.3417 38.2517 19.3927C38.2517 19.6208 38.2758 19.8231 38.2758 20.0513C38.2758 20.811 38.1787 21.4186 37.9355 21.9251C38.6892 21.7479 39.4918 21.6719 40.2944 21.6719C42.0939 21.6719 43.6503 22.2293 43.8935 24.0774C44.0877 26.1284 43.0667 27.2935 40.2214 27.6479C37.1818 28.0533 32.366 28.1034 27.8183 27.8251C24.9489 27.6228 23.4649 26.4068 23.4649 24.3306C23.4649 21.9502 24.9 20.5319 26.6995 20.2285C28.621 19.8992 29.861 20.3296 30.8097 21.5707C31.4904 22.5077 31.4422 24.4325 30.5176 25.1162C30.2014 25.3694 30.4446 25.8508 30.8097 25.5717C31.8556 24.7611 33.0226 23.9511 34.2875 23.2925C32.2689 23.1655 31.4422 22.2795 31.4422 20.3296C31.4422 20.0513 31.4663 19.7722 31.4911 19.4687C29.2052 19.4436 26.9675 19.3425 24.9737 19.1645H24.973ZM25.6055 9.18676C27.5992 8.90842 29.5696 8.09772 30.1532 6.98359C30.9069 5.54016 32.488 5.23596 33.631 5.23596C34.7009 5.23596 36.0388 5.33711 37.0116 6.93264C37.7171 8.09772 40.2703 8.90766 41.8267 9.18676C43.3348 9.44001 43.9424 11.1116 43.9424 12.5299C43.9424 14.581 42.4832 15.2647 39.93 15.2647C35.4312 15.2647 35.4312 14.9103 35.3582 12.479C35.3093 11.0865 34.6775 10.0735 33.6799 9.44001C33.2906 9.18676 32.8773 9.71835 33.3637 10.0226C34.2145 10.58 34.6286 11.6181 34.6286 12.6562C34.6286 14.9856 34.6286 15.2137 29.035 15.2137C25.5814 15.2137 23.3444 14.5802 23.3444 12.5292C23.3444 10.7055 24.074 9.41415 25.6062 9.186L25.6055 9.18676Z" fill="black"/>
<path d="M50.5117 12.4098C49.9523 12.6121 49.5148 12.8654 49.1745 13.1445C48.8823 13.3468 49.1255 13.778 49.4177 13.5749C50.2203 12.9414 51.3873 12.638 52.7253 12.638C54.5007 12.638 55.6678 14.0814 55.8138 16.5888C56.1301 21.1472 53.406 22.1351 50.4876 22.1351C47.3501 22.1351 45.8186 20.2362 45.4294 17.1462C44.9671 13.7529 45.1621 6.96618 45.4783 3.59793C45.6974 1.47081 46.4752 0.762021 48.0315 0.762021C49.5878 0.762021 50.4876 1.47081 50.6336 3.62378C50.8279 5.776 50.8279 11.2972 50.5117 12.4114V12.4098ZM61.0663 13.9293C61.0174 16.0564 60.9451 18.1334 60.799 20.1335C60.6529 22.1336 59.6802 23.1215 58.3429 23.1215C56.8348 23.1215 55.8379 21.9564 56.0081 19.7281C56.4945 14.3849 56.4945 9.01573 56.057 3.90061C55.8379 1.41909 56.8355 0.279104 58.3429 0.279104C59.6802 0.279104 60.6529 1.26699 60.799 3.26711C60.8961 4.50825 60.9692 5.79958 61.0181 7.11676L62.1852 7.21791C62.1362 6.02773 62.0632 4.86264 61.9661 3.69755C61.7229 1.19018 62.7446 0 64.252 0C65.5899 0 66.5379 1.01299 66.7081 3.08915C67.0973 8.55943 67.0973 14.7385 66.7081 20.2339C66.5379 22.2598 65.5892 23.2728 64.252 23.2728C62.7439 23.2728 61.7229 22.1077 61.942 19.8285C62.1121 17.8277 62.2093 15.8275 62.2582 13.8267L61.0663 13.9278V13.9293Z" fill="black"/>
</svg>
